<svg width="404" height="114" viewBox="0 0 404 114" fill="none" xmlns="http://www.w3.org/2000/svg">
<g clip-path="url(#clip0_2339_8755)">
<rect y="18.5422" width="76.9157" height="76.9157" rx="38.4578" fill="#191F4D"/>
<path d="M84.8405 57.6553C47.3443 63.7886 33.0879 90.3247 30.6467 102.808C26.7287 101.665 23.1279 99.9327 21.7853 99.048C35.3777 66.9659 69.51 57.9501 84.8405 57.6553Z" fill="white"/>
<path d="M84.6248 54.0603C46.6496 58.3742 14.8326 72.2588 9.6642 87.5651C6.6951 83.9702 4.86233 79.9438 4.3858 78.7575C32.1707 59.237 69.2783 54.3479 84.6248 54.0603Z" fill="white"/>
<line x1="34.7271" y1="88.4277" x2="34.7271" y2="103.239" stroke="white" stroke-width="2.30076"/>
<line x1="41.917" y1="78.937" x2="41.917" y2="103.67" stroke="white" stroke-width="2.30076"/>
<line x1="49.1068" y1="72.3945" x2="49.1068" y2="103.67" stroke="white" stroke-width="2.30076"/>
<line x1="56.2967" y1="67.0022" x2="56.2967" y2="102.808" stroke="white" stroke-width="2.30076"/>
<line x1="63.4866" y1="62.9756" x2="63.4866" y2="100.219" stroke="white" stroke-width="2.30076"/>
<line x1="70.6765" y1="60.8186" x2="70.6765" y2="96.8399" stroke="white" stroke-width="2.30076"/>
<line x1="77.8663" y1="58.7336" x2="77.8663" y2="94.1078" stroke="white" stroke-width="2.30076"/>
</g>
<path d="M106.451 90V28.6433H132.822C138.507 28.6433 142.902 30.3134 146.008 33.6538C149.114 36.9941 150.667 41.4772 150.667 47.103C150.667 52.7289 149.114 57.2119 146.008 60.5523C142.902 63.8926 138.507 65.5628 132.822 65.5628H116.384V90H106.451ZM116.384 56.8603H132.207C134.727 56.8603 136.69 56.2157 138.097 54.9265C139.503 53.5786 140.206 51.674 140.206 49.2127V44.9933C140.206 42.532 139.503 40.6568 138.097 39.3675C136.69 38.0197 134.727 37.3457 132.207 37.3457H116.384V56.8603ZM188.549 82.4403H188.198C187.787 83.5537 187.231 84.6379 186.527 85.6927C185.883 86.7476 185.033 87.6852 183.978 88.5056C182.982 89.2675 181.751 89.8828 180.286 90.3516C178.88 90.8204 177.239 91.0548 175.364 91.0548C170.617 91.0548 166.925 89.5312 164.288 86.4839C161.709 83.4365 160.42 79.0706 160.42 73.3862V44.2901H170.001V72.1556C170.001 79.2465 172.932 82.7919 178.792 82.7919C180.022 82.7919 181.224 82.6454 182.396 82.3524C183.568 82.0008 184.593 81.5027 185.473 80.858C186.41 80.2134 187.143 79.393 187.67 78.3967C188.256 77.4005 188.549 76.2284 188.549 74.8806V44.2901H198.131V90H188.549V82.4403ZM211.85 90V44.2901H221.432V53.0805H221.871C222.516 50.7364 223.864 48.6853 225.915 46.9272C227.966 45.1692 230.808 44.2901 234.442 44.2901H236.991V53.52H233.211C229.402 53.52 226.472 54.1353 224.421 55.366C222.428 56.5966 221.432 58.4133 221.432 60.816V90H211.85ZM263.004 91.0548C259.722 91.0548 256.792 90.4981 254.214 89.3847C251.635 88.2712 249.438 86.689 247.621 84.6379C245.804 82.5282 244.398 80.0083 243.402 77.0782C242.464 74.0894 241.995 70.7784 241.995 67.1451C241.995 63.5117 242.464 60.23 243.402 57.2999C244.398 54.3111 245.804 51.7912 247.621 49.7401C249.438 47.6305 251.635 46.0189 254.214 44.9054C256.792 43.792 259.722 43.2353 263.004 43.2353C266.345 43.2353 269.275 43.8213 271.795 44.9933C274.373 46.1654 276.512 47.8063 278.212 49.9159C279.911 51.967 281.171 54.3697 281.991 57.124C282.87 59.8784 283.31 62.8378 283.31 66.0023V69.6064H251.928V71.1007C251.928 74.6169 252.954 77.5177 255.005 79.8032C257.115 82.0301 260.103 83.1435 263.971 83.1435C266.784 83.1435 269.157 82.5282 271.091 81.2975C273.025 80.0669 274.666 78.3967 276.014 76.287L281.64 81.825C279.94 84.6379 277.479 86.8941 274.256 88.5935C271.033 90.2344 267.282 91.0548 263.004 91.0548ZM263.004 50.7071C261.363 50.7071 259.84 51.0001 258.433 51.5861C257.085 52.1721 255.913 52.9926 254.917 54.0474C253.979 55.1023 253.247 56.3622 252.719 57.8273C252.192 59.2923 251.928 60.9039 251.928 62.662V63.2773H273.201V62.3983C273.201 58.8821 272.293 56.0692 270.476 53.9595C268.659 51.7912 266.169 50.7071 263.004 50.7071ZM341.561 43.0595H341.121L336.286 52.9926L322.837 77.5177L309.388 52.9926L304.553 43.0595H304.114V90H294.62V28.6433H306.399L322.837 59.8491H323.364L339.802 28.6433H351.054V90H341.561V43.0595ZM366.213 90V28.6433H376.146V81.2096H401.111V90H366.213Z" fill="#1E293B"/>
<defs>
<clipPath id="clip0_2339_8755">
<rect y="18.5422" width="76.9157" height="76.9157" rx="38.4578" fill="white"/>
</clipPath>
</defs>
</svg>
