<svg width="236" height="62" viewBox="0 0 236 62" fill="none" xmlns="http://www.w3.org/2000/svg">
<g clip-path="url(#clip0_2720_9145)">
<rect y="9.06445" width="43.8709" height="43.871" rx="21.9355" fill="#191F4D"/>
<path d="M48.3911 31.3735C27.0041 34.8719 18.8726 50.0075 17.4803 57.1274C15.2455 56.4757 13.1917 55.4876 12.4259 54.983C20.1787 36.6841 39.647 31.5417 48.3911 31.3735Z" fill="white"/>
<path d="M48.2681 29.323C26.6079 31.7836 8.46022 39.703 5.51227 48.4334C3.81876 46.3829 2.77338 44.0864 2.50159 43.4097C18.3495 32.2757 39.5148 29.487 48.2681 29.323Z" fill="white"/>
<line x1="19.8076" y1="48.9255" x2="19.8076" y2="57.3735" stroke="white" stroke-width="1.3123"/>
<line x1="23.9085" y1="43.5122" x2="23.9085" y2="57.6194" stroke="white" stroke-width="1.3123"/>
<line x1="28.0094" y1="39.7805" x2="28.0094" y2="57.6196" stroke="white" stroke-width="1.3123"/>
<line x1="32.1104" y1="36.7048" x2="32.1104" y2="57.1275" stroke="white" stroke-width="1.3123"/>
<line x1="36.2113" y1="34.4082" x2="36.2113" y2="55.6511" stroke="white" stroke-width="1.3123"/>
<line x1="40.3123" y1="33.178" x2="40.3123" y2="53.7237" stroke="white" stroke-width="1.3123"/>
<line x1="44.4132" y1="31.9888" x2="44.4132" y2="52.1654" stroke="white" stroke-width="1.3123"/>
</g>
<path d="M64.6282 47V36.1701H73.5027C80.522 36.1701 85.6862 32.0087 85.6862 24.7888C85.6862 17.5689 80.522 13.4074 73.5027 13.4074H59.2133V47H64.6282ZM74.1545 18.2708C78.5666 18.2708 80.3215 19.9755 80.3215 24.7888C80.3215 29.602 78.5666 31.3067 74.1545 31.3067H64.6282V18.2708H74.1545ZM98.5487 47.5014C103.412 47.5014 106.069 44.8942 107.273 42.0363H107.473V47H112.487V22.0813H107.072V36.12C107.072 41.0336 104.716 42.8385 100.554 42.8385C96.2423 42.8385 94.5376 40.9834 94.5376 36.5211V22.0813H89.1227V37.4737C89.1227 43.1394 92.0307 47.5014 98.5487 47.5014ZM123.234 47V30.7552C123.234 27.4461 124.437 26.1926 127.696 26.1926C130.855 26.1926 131.807 27.396 131.807 30.7051V31.7078H137.222V30.0533C137.222 25.3904 135.217 21.5799 130.002 21.5799C126.342 21.5799 124.036 23.5854 123.033 25.8918H122.782V21.9309H117.819V47H123.234ZM151.765 47.5014C158.483 47.5014 162.946 44.1923 162.946 39.0782V38.6269H157.581V39.028C157.581 41.2842 155.977 42.6881 151.815 42.6881C146.601 42.6881 144.946 40.3818 144.746 35.8192H162.845C162.996 35.0671 163.146 33.7134 163.146 32.4098C163.146 25.591 158.433 21.5799 151.715 21.5799C144.294 21.5799 139.682 26.7943 139.682 34.5156C139.682 42.287 143.542 47.5014 151.765 47.5014ZM151.614 26.1425C155.876 26.1425 158.183 27.9475 157.982 32.2092H144.796C145.097 28.3486 146.901 26.1425 151.614 26.1425ZM173.277 47V27.1453L172.977 21.5298H173.428L175.433 27.1453L183.004 44.9945H189.522L197.043 27.1453L199.149 21.5298H199.5L199.299 27.1453V47H204.664V13.4074H196.993L189.472 31.8583L186.564 39.8804H186.163L183.205 31.8583L175.534 13.4074H167.862V47H173.277ZM233.677 47V42.1366H215.777V13.4074H210.362V47H233.677Z" fill="#1E293B"/>
<defs>
<clipPath id="clip0_2720_9145">
<rect y="9.06445" width="43.8709" height="43.871" rx="21.9355" fill="white"/>
</clipPath>
</defs>
</svg>
