<svg width="100" height="26" viewBox="0 0 100 26" fill="none" xmlns="http://www.w3.org/2000/svg">
<g clip-path="url(#clip0_7288_79791)">
<rect y="1.82324" width="22.3531" height="22.353" rx="11.1765" fill="#5046E5"/>
<path d="M24.6551 13.1895C13.758 14.9719 9.61481 22.6838 8.90537 26.3115C7.76671 25.9795 6.72027 25.476 6.33008 25.2189C10.2803 15.8953 20.1997 13.2751 24.6551 13.1895Z" fill="white"/>
<path d="M24.5933 12.1455C13.5571 13.3992 4.31045 17.4343 2.80841 21.8826C1.94554 20.8378 1.4129 19.6677 1.27441 19.3229C9.34922 13.6499 20.1334 12.2291 24.5933 12.1455Z" fill="white"/>
<line x1="10.0921" y1="22.1328" x2="10.0921" y2="26.4372" stroke="white" stroke-width="0.668642"/>
<line x1="12.181" y1="19.375" x2="12.181" y2="26.5629" stroke="white" stroke-width="0.668642"/>
<line x1="14.2708" y1="17.4736" x2="14.2708" y2="26.563" stroke="white" stroke-width="0.668642"/>
<line x1="16.3607" y1="15.9062" x2="16.3607" y2="26.312" stroke="white" stroke-width="0.668642"/>
<line x1="18.4496" y1="14.7363" x2="18.4496" y2="25.5599" stroke="white" stroke-width="0.668642"/>
<line x1="20.5394" y1="14.1094" x2="20.5394" y2="24.5778" stroke="white" stroke-width="0.668642"/>
<line x1="22.6292" y1="13.5029" x2="22.6292" y2="23.7833" stroke="white" stroke-width="0.668642"/>
</g>
<path d="M30.3793 21V7.04H36.6593C37.2993 7.04 37.8726 7.14667 38.3793 7.36C38.8993 7.56 39.3393 7.85333 39.6993 8.24C40.0593 8.61333 40.3326 9.06667 40.5193 9.6C40.7059 10.1333 40.7993 10.72 40.7993 11.36C40.7993 12.0133 40.7059 12.6067 40.5193 13.14C40.3326 13.66 40.0593 14.1133 39.6993 14.5C39.3393 14.8733 38.8993 15.1667 38.3793 15.38C37.8726 15.58 37.2993 15.68 36.6593 15.68H33.0193V21H30.3793ZM33.0193 13.4H36.4193C36.9259 13.4 37.3259 13.2667 37.6193 13C37.9126 12.72 38.0593 12.3267 38.0593 11.82V10.9C38.0593 10.3933 37.9126 10.0067 37.6193 9.74C37.3259 9.47333 36.9259 9.34 36.4193 9.34H33.0193V13.4ZM49.2718 19.26H49.1718C49.0784 19.5267 48.9518 19.78 48.7918 20.02C48.6451 20.2467 48.4518 20.4533 48.2118 20.64C47.9851 20.8267 47.7051 20.9733 47.3718 21.08C47.0518 21.1867 46.6784 21.24 46.2518 21.24C45.1718 21.24 44.3451 20.8867 43.7718 20.18C43.1984 19.4733 42.9118 18.4667 42.9118 17.16V10.56H45.4718V16.9C45.4718 17.62 45.6118 18.1733 45.8918 18.56C46.1718 18.9333 46.6184 19.12 47.2318 19.12C47.4851 19.12 47.7318 19.0867 47.9718 19.02C48.2251 18.9533 48.4451 18.8533 48.6318 18.72C48.8184 18.5733 48.9718 18.4 49.0918 18.2C49.2118 17.9867 49.2718 17.74 49.2718 17.46V10.56H51.8318V21H49.2718V19.26ZM54.7896 21V10.56H57.3496V12.72H57.4496C57.5162 12.44 57.6162 12.1733 57.7496 11.92C57.8962 11.6533 58.0829 11.42 58.3096 11.22C58.5362 11.02 58.8029 10.86 59.1096 10.74C59.4296 10.62 59.7962 10.56 60.2096 10.56H60.7696V12.98H59.9696C59.1029 12.98 58.4496 13.1067 58.0096 13.36C57.5696 13.6133 57.3496 14.0267 57.3496 14.6V21H54.7896ZM66.7635 21.24C65.9901 21.24 65.2968 21.1133 64.6835 20.86C64.0835 20.5933 63.5701 20.2267 63.1435 19.76C62.7301 19.28 62.4101 18.7067 62.1835 18.04C61.9568 17.36 61.8435 16.6 61.8435 15.76C61.8435 14.9333 61.9501 14.1867 62.1635 13.52C62.3901 12.8533 62.7101 12.2867 63.1235 11.82C63.5368 11.34 64.0435 10.9733 64.6435 10.72C65.2435 10.4533 65.9235 10.32 66.6835 10.32C67.4968 10.32 68.2035 10.46 68.8035 10.74C69.4035 11.02 69.8968 11.4 70.2835 11.88C70.6701 12.36 70.9568 12.92 71.1435 13.56C71.3435 14.1867 71.4435 14.86 71.4435 15.58V16.42H64.5035V16.68C64.5035 17.44 64.7168 18.0533 65.1435 18.52C65.5701 18.9733 66.2035 19.2 67.0435 19.2C67.6835 19.2 68.2035 19.0667 68.6035 18.8C69.0168 18.5333 69.3835 18.1933 69.7035 17.78L71.0835 19.32C70.6568 19.92 70.0701 20.3933 69.3235 20.74C68.5901 21.0733 67.7368 21.24 66.7635 21.24ZM66.7235 12.24C66.0435 12.24 65.5035 12.4667 65.1035 12.92C64.7035 13.3733 64.5035 13.96 64.5035 14.68V14.84H68.7835V14.66C68.7835 13.94 68.6035 13.36 68.2435 12.92C67.8968 12.4667 67.3901 12.24 66.7235 12.24ZM84.3958 10.98H84.3158L83.2358 13.2L80.3758 18.48L77.5158 13.2L76.4358 10.98H76.3558V21H73.8558V7.04H76.8358L80.4158 13.86H80.4958L84.0358 7.04H86.8958V21H84.3958V10.98ZM90.1839 21V7.04H92.8239V18.66H98.3239V21H90.1839Z" fill="#030712"/>
<defs>
<clipPath id="clip0_7288_79791">
<rect y="1.82324" width="22.3531" height="22.353" rx="11.1765" fill="white"/>
</clipPath>
</defs>
</svg>
