<svg width="236" height="62" viewBox="0 0 236 62" fill="none" xmlns="http://www.w3.org/2000/svg">
<g clip-path="url(#clip0_2720_9132)">
<rect y="9.06348" width="43.873" height="43.873" rx="21.9365" fill="white"/>
<path d="M48.3933 31.3735C27.0053 34.872 18.8734 50.0083 17.481 57.1286C15.2461 56.4769 13.1922 55.4887 12.4264 54.9841C20.1795 36.6843 39.6487 31.5417 48.3933 31.3735Z" fill="#191F4D"/>
<path d="M48.2703 29.323C26.6091 31.7837 8.46062 39.7035 5.51253 48.4343C3.81894 46.3837 2.77352 44.0871 2.50171 43.4104C18.3503 32.2758 39.5166 29.487 48.2703 29.323Z" fill="#191F4D"/>
<line x1="19.8084" y1="48.9265" x2="19.8084" y2="57.3748" stroke="#191F4D" stroke-width="1.31236"/>
<line x1="23.9096" y1="43.5129" x2="23.9096" y2="57.6208" stroke="#191F4D" stroke-width="1.31236"/>
<line x1="28.0107" y1="39.781" x2="28.0107" y2="57.6209" stroke="#191F4D" stroke-width="1.31236"/>
<line x1="32.1119" y1="36.7051" x2="32.1119" y2="57.1287" stroke="#191F4D" stroke-width="1.31236"/>
<line x1="36.2129" y1="34.4084" x2="36.2129" y2="55.6523" stroke="#191F4D" stroke-width="1.31236"/>
<line x1="40.3141" y1="33.178" x2="40.3141" y2="53.7246" stroke="#191F4D" stroke-width="1.31236"/>
<line x1="44.4152" y1="31.9888" x2="44.4152" y2="52.1663" stroke="#191F4D" stroke-width="1.31236"/>
</g>
<path d="M64.6299 47V36.1703H73.5043C80.5236 36.1703 85.6878 32.0088 85.6878 24.789C85.6878 17.5692 80.5236 13.4077 73.5043 13.4077H59.2151V47H64.6299ZM74.1561 18.2711C78.5682 18.2711 80.323 19.9758 80.323 24.789C80.323 29.6022 78.5682 31.3069 74.1561 31.3069H64.6299V18.2711H74.1561ZM98.55 47.5014C103.413 47.5014 106.071 44.8942 107.274 42.0364H107.475V47H112.488V22.0816H107.073V36.1201C107.073 41.0336 104.717 42.8386 100.556 42.8386C96.2437 42.8386 94.539 40.9835 94.539 36.5212V22.0816H89.1242V37.4738C89.1242 43.1394 92.0321 47.5014 98.55 47.5014ZM123.235 47V30.7554C123.235 27.4463 124.438 26.1929 127.697 26.1929C130.856 26.1929 131.808 27.3962 131.808 30.7052V31.708H137.223V30.0535C137.223 25.3907 135.218 21.5802 130.003 21.5802C126.343 21.5802 124.037 23.5857 123.034 25.892H122.783V21.9312H117.82V47H123.235ZM151.766 47.5014C158.484 47.5014 162.946 44.1923 162.946 39.0782V38.627H157.582V39.0281C157.582 41.2843 155.977 42.6882 151.816 42.6882C146.602 42.6882 144.947 40.3818 144.746 35.8193H162.846C162.997 35.0672 163.147 33.7135 163.147 32.4099C163.147 25.5912 158.434 21.5802 151.716 21.5802C144.295 21.5802 139.683 26.7945 139.683 34.5157C139.683 42.2871 143.543 47.5014 151.766 47.5014ZM151.615 26.1427C155.877 26.1427 158.183 27.9477 157.983 32.2094H144.797C145.097 28.3488 146.902 26.1427 151.615 26.1427ZM173.278 47V27.1455L172.977 21.5301H173.428L175.434 27.1455L183.005 44.9945H189.523L197.043 27.1455L199.149 21.5301H199.5L199.299 27.1455V47H204.664V13.4077H196.993L189.472 31.8584L186.564 39.8804H186.163L183.205 31.8584L175.534 13.4077H167.863V47H173.278ZM233.677 47V42.1366H215.777V13.4077H210.363V47H233.677Z" fill="white"/>
<defs>
<clipPath id="clip0_2720_9132">
<rect y="9.06348" width="43.873" height="43.873" rx="21.9365" fill="white"/>
</clipPath>
</defs>
</svg>
