<svg width="170" height="32" viewBox="0 0 130 24" fill="none" xmlns="http://www.w3.org/2000/svg">
<path d="M7.91645 21.4562V10.0967L1 22L7.91645 21.4562Z" fill="#020617" stroke="#020617" stroke-width="0.277779"/>
<path d="M8.60817 2L5.72632 8.58613L14.9483 14.3263L8.60817 2Z" fill="#020617" stroke="#020617" stroke-width="0.277779"/>
<path d="M21.0001 18.7373L17.1961 13.2388L7.92526 18.7321L21.0001 18.7373Z" fill="#020617"/>
<path d="M7.9165 18.7373L7.92526 18.7321M7.92526 18.7321L17.1961 13.2388L21.0001 18.7373L7.92526 18.7321Z" stroke="#020617" stroke-width="0.277779"/>
<path d="M42.8 15.36C42.8 16.6133 42.3533 17.5667 41.46 18.22C40.58 18.8733 39.48 19.2 38.16 19.2C36.3467 19.2 34.9533 18.8467 33.98 18.14L34.26 15.58L35.46 15.7L35.38 17.34C35.82 17.5667 36.26 17.72 36.7 17.8C37.14 17.88 37.6 17.92 38.08 17.92C38.9333 17.92 39.6667 17.74 40.28 17.38C40.9067 17.0067 41.22 16.38 41.22 15.5C41.22 14.5133 40.88 13.8733 40.2 13.58C39.52 13.2733 38.78 13.0267 37.98 12.84C37.3667 12.7067 36.76 12.54 36.16 12.34C35.56 12.1267 35.06 11.8 34.66 11.36C34.26 10.9067 34.06 10.2533 34.06 9.4C34.06 8.17333 34.4667 7.26667 35.28 6.68C36.1067 6.09333 37.08 5.8 38.2 5.8C38.92 5.8 39.6467 5.9 40.38 6.1C41.1133 6.3 41.6867 6.56 42.1 6.88L42.22 9.46L41.02 9.58L40.82 7.64C40.4067 7.42667 39.9867 7.28667 39.56 7.22C39.1333 7.14 38.7267 7.1 38.34 7.1C37.5267 7.1 36.8667 7.28667 36.36 7.66C35.8667 8.02 35.62 8.54667 35.62 9.24C35.62 10.0533 35.92 10.6 36.52 10.88C37.12 11.16 37.7867 11.3867 38.52 11.56C39.1067 11.6933 39.7267 11.8667 40.38 12.08C41.0467 12.28 41.6133 12.6333 42.08 13.14C42.56 13.6333 42.8 14.3733 42.8 15.36ZM54.5841 19H51.5841V17.32C51.3041 17.88 50.8907 18.3333 50.3441 18.68C49.8107 19.0267 49.1907 19.2 48.4841 19.2C47.6174 19.2 46.8841 18.9333 46.2841 18.4C45.6974 17.8533 45.4041 16.9867 45.4041 15.8V11.24H43.8441V10.1H46.8041V15.4C46.8041 16.36 47.0041 17.0333 47.4041 17.42C47.8041 17.8067 48.3174 18 48.9441 18C49.7041 18 50.3241 17.7133 50.8041 17.14C51.2974 16.5667 51.5574 15.96 51.5841 15.32V11.24H49.7241V10.1H52.9841V17.86H54.5841V19ZM65.115 14.3C65.115 15.0867 64.975 15.86 64.695 16.62C64.4283 17.3667 63.995 17.9867 63.395 18.48C62.8083 18.96 62.0283 19.2 61.055 19.2C59.7083 19.2 58.7283 18.7 58.115 17.7V22.12H60.175V23.26H55.135V22.12H56.715V11.24H55.115V10.1H58.115V11.96C58.3817 11.4267 58.7683 10.9533 59.275 10.54C59.7817 10.1267 60.4483 9.92 61.275 9.92C62.4217 9.92 63.3483 10.3067 64.055 11.08C64.7617 11.8533 65.115 12.9267 65.115 14.3ZM63.635 14.42C63.635 13.3533 63.375 12.54 62.855 11.98C62.335 11.4067 61.6883 11.12 60.915 11.12C60.115 11.12 59.455 11.44 58.935 12.08C58.415 12.7067 58.1417 13.36 58.115 14.04V15.36C58.115 16.1067 58.375 16.7333 58.895 17.24C59.415 17.7467 60.0417 18 60.775 18C61.775 18 62.5017 17.64 62.955 16.92C63.4083 16.2 63.635 15.3667 63.635 14.42ZM74.5711 16.44C74.4511 17.2 74.0711 17.8533 73.4311 18.4C72.7911 18.9333 71.9244 19.2 70.8311 19.2C69.5778 19.2 68.5644 18.8067 67.7911 18.02C67.0178 17.2333 66.6311 16.12 66.6311 14.68C66.6311 13.2933 66.9978 12.1533 67.7311 11.26C68.4644 10.3667 69.4578 9.92 70.7111 9.92C71.9378 9.92 72.8711 10.3067 73.5111 11.08C74.1511 11.8533 74.4778 12.7667 74.4911 13.82C74.4911 14.1667 74.4511 14.52 74.3711 14.88H68.1111C68.1911 16.96 69.1311 18 70.9311 18C71.6378 18 72.1911 17.8333 72.5911 17.5C72.9911 17.1667 73.2578 16.7267 73.3911 16.18L74.5711 16.44ZM73.0111 13.84C73.0778 13.1733 72.9178 12.5467 72.5311 11.96C72.1578 11.3733 71.5378 11.08 70.6711 11.08C69.8444 11.08 69.2378 11.3533 68.8511 11.9C68.4644 12.4467 68.2244 13.0933 68.1311 13.84H73.0111ZM80.9456 9.94C81.5856 9.94 82.0923 10.0933 82.4656 10.4L82.8056 12.64L81.6656 12.78L81.3256 11.26C81.099 11.18 80.8723 11.14 80.6456 11.14C80.1256 11.14 79.6923 11.36 79.3456 11.8C78.999 12.2267 78.8256 12.7867 78.8256 13.48V17.86H80.8856V19H75.8656V17.86H77.4256V11.24H75.8256V10.1H78.7456V11.7C78.919 11.2067 79.199 10.7933 79.5856 10.46C79.9856 10.1133 80.439 9.94 80.9456 9.94ZM95.9438 19H91.3238V17.72H93.0638L92.1238 15.22H86.5638L85.5638 17.72H87.4438V19H82.8638V17.72H84.0838L88.3438 7.28H86.2638V6H89.9638L94.6238 17.72H95.9438V19ZM91.7038 14.08L89.4638 8.12H89.3438L87.0038 14.08H91.7038ZM100.733 19H96.2125V17.86H97.7725V6.38H96.1925V5.24H99.1725V17.86H100.733V19ZM103.225 7.8V5.98H104.745V7.8H103.225ZM106.325 19H101.805V17.86H103.365V11.24H101.765V10.1H104.765V17.86H106.325V19ZM117.35 11.24H115.91V18.88C115.91 20.28 115.524 21.3933 114.75 22.22C113.99 23.0467 112.917 23.46 111.53 23.46C110.597 23.46 109.757 23.2467 109.01 22.82C108.277 22.3933 107.79 21.7333 107.55 20.84L108.67 20.28C108.897 20.9733 109.29 21.4733 109.85 21.78C110.41 22.1 110.99 22.26 111.59 22.26C112.444 22.26 113.137 21.96 113.67 21.36C114.217 20.7733 114.49 19.9267 114.49 18.82V17.18C114.224 17.7 113.837 18.1533 113.33 18.54C112.824 18.9267 112.15 19.12 111.31 19.12C110.257 19.12 109.357 18.7467 108.61 18C107.864 17.2533 107.49 16.18 107.49 14.78C107.49 13.5933 107.81 12.4867 108.45 11.46C109.09 10.4333 110.097 9.92 111.47 9.92C112.884 9.92 113.89 10.4467 114.49 11.5V10.1H117.35V11.24ZM114.49 15.16V13.62C114.49 12.8733 114.23 12.2733 113.71 11.82C113.204 11.3533 112.584 11.12 111.85 11.12C110.85 11.12 110.124 11.48 109.67 12.2C109.23 12.92 109.01 13.7467 109.01 14.68C109.01 15.7733 109.257 16.5867 109.75 17.12C110.257 17.6533 110.877 17.92 111.61 17.92C112.464 17.92 113.15 17.6267 113.67 17.04C114.19 16.4533 114.464 15.8267 114.49 15.16ZM128.968 19H124.468V17.86H126.008V13.72C126.008 12.76 125.814 12.0867 125.428 11.7C125.041 11.3 124.548 11.1 123.948 11.1C123.148 11.1 122.501 11.3667 122.008 11.9C121.528 12.42 121.274 13.02 121.248 13.7V17.86H122.808V19H118.288V17.86H119.848V11.24H118.248V10.1H121.248V11.68C121.888 10.5067 122.928 9.92 124.368 9.92C125.234 9.92 125.961 10.1867 126.548 10.72C127.134 11.2533 127.428 12.1133 127.428 13.3V17.86H128.968V19Z" fill="#020617"/>
</svg>
